<?xml version="1.0" standalone="no"?>
<!DOCTYPE svg PUBLIC "-//W3C//DTD SVG 20010904//EN"
 "http://www.w3.org/TR/2001/REC-SVG-20010904/DTD/svg10.dtd">
<svg version="1.0" xmlns="http://www.w3.org/2000/svg"
 width="3051.000000pt" height="1373.000000pt" viewBox="0 0 3051.000000 1373.000000"
 preserveAspectRatio="xMidYMid meet">

<g transform="translate(0.000000,1373.000000) scale(0.100000,-0.100000)"
fill="#000000" stroke="none">
<path d="M0 6865 l0 -6865 15255 0 15255 0 0 6865 0 6865 -15255 0 -15255 0 0
-6865z m22543 3508 c-13 -2 -33 -2 -45 0 -13 2 -3 4 22 4 25 0 35 -2 23 -4z
m852 -49 c-45 -55 -64 -103 -65 -163 0 -54 -19 -111 -37 -111 -8 0 -13 -14
-13 -40 0 -32 4 -40 18 -40 9 0 23 -9 29 -19 7 -11 22 -21 34 -23 12 -2 29
-14 38 -27 15 -24 15 -24 -15 -19 -27 3 -30 1 -26 -15 5 -20 32 -18 86 9 16 8
44 14 61 14 18 0 38 7 45 15 7 8 20 15 30 15 10 0 20 -7 24 -15 3 -8 16 -15
30 -15 14 0 28 -4 31 -10 3 -5 44 -10 91 -10 l84 0 0 -30 c0 -16 -4 -30 -10
-30 -5 0 -10 -18 -10 -40 l0 -40 41 0 c52 0 139 -28 139 -46 0 -7 -9 -18 -20
-24 -11 -6 -20 -18 -20 -26 0 -9 9 -18 20 -21 11 -3 20 -9 20 -14 0 -5 7 -9
15 -9 8 0 15 -4 15 -10 0 -5 9 -10 21 -10 26 0 94 -70 78 -81 -16 -9 -4 -39
16 -39 8 0 15 9 15 20 0 17 7 20 46 20 40 0 52 -5 80 -35 19 -18 34 -43 34
-55 0 -17 6 -20 45 -20 36 0 51 -5 69 -25 13 -14 28 -25 35 -25 6 0 11 -11 11
-24 0 -21 6 -24 53 -30 28 -3 64 -9 80 -12 23 -5 27 -3 27 15 0 24 5 24 99 15
50 -6 61 -10 61 -25 0 -12 7 -19 18 -19 10 0 25 -9 35 -20 14 -17 29 -20 100
-20 61 0 89 -4 106 -17 23 -16 23 -17 5 -23 -17 -6 -15 -9 13 -23 22 -12 58
-17 118 -17 78 0 85 -2 85 -20 0 -13 7 -20 18 -20 10 0 23 -5 30 -12 14 -14
104 -11 113 3 3 6 21 -8 38 -30 l33 -41 79 0 c44 0 87 4 97 9 57 29 134 51
180 51 28 0 52 5 52 10 0 6 16 10 36 10 29 0 43 -8 73 -40 33 -36 42 -40 84
-40 26 0 47 -4 47 -10 0 -5 18 -10 40 -10 38 0 40 -2 40 -30 l0 -30 94 0 c53
0 98 -4 101 -10 3 -5 32 -10 64 -10 50 0 62 -4 87 -27 l29 -28 -27 -3 c-16 -2
-28 -8 -28 -14 0 -6 8 -7 18 -3 9 3 37 10 62 15 25 5 53 12 63 15 10 4 17 3
17 -4 0 -6 -11 -11 -25 -11 -18 0 -23 -4 -18 -15 9 -25 58 -45 108 -45 25 0
54 -6 65 -12 17 -11 22 -10 29 1 6 9 11 10 15 2 4 -6 29 -11 56 -11 51 0 109
-29 137 -70 11 -15 26 -20 59 -20 25 0 61 -8 82 -19 20 -10 50 -21 65 -25 20
-5 27 -12 23 -21 -9 -24 52 -44 153 -50 19 -1 40 -10 46 -19 8 -10 26 -16 49
-16 39 0 49 -14 15 -23 -27 -7 -15 -27 16 -27 13 0 30 -7 39 -15 10 -11 36
-15 90 -15 53 0 77 -4 83 -14 4 -7 30 -23 58 -35 35 -15 46 -24 36 -30 -16
-10 -9 -14 52 -31 26 -7 47 -17 47 -21 0 -5 8 -9 19 -9 33 0 65 -23 143 -102
71 -72 80 -78 117 -78 l41 0 0 -40 c0 -30 3 -38 14 -34 8 3 34 -9 58 -26 45
-33 67 -60 48 -60 -5 0 -10 -7 -10 -15 0 -19 126 -145 145 -145 24 0 63 -47
100 -119 18 -37 45 -75 59 -85 14 -9 28 -27 32 -41 3 -13 17 -31 31 -40 16
-11 22 -22 19 -32 -10 -25 5 -85 19 -79 8 3 11 -2 8 -13 -3 -12 5 -26 25 -40
20 -14 32 -33 37 -57 8 -44 25 -74 42 -74 9 0 13 -17 13 -55 0 -30 5 -55 10
-55 6 0 10 -5 10 -11 0 -7 8 -19 18 -28 28 -24 65 -110 64 -145 -1 -47 8 -83
17 -67 6 10 10 9 14 -3 4 -10 1 -16 -7 -16 -12 0 -12 -9 1 -57 8 -32 19 -62
24 -67 5 -6 9 -28 9 -51 0 -22 5 -56 11 -75 6 -19 11 -61 10 -92 -1 -34 3 -58
9 -58 6 0 10 -45 10 -120 0 -73 -4 -120 -10 -120 -5 0 -10 -18 -10 -40 0 -22
3 -40 8 -40 4 0 6 -18 4 -40 -2 -22 -8 -40 -12 -40 -4 0 -13 -34 -19 -76 -6
-41 -18 -82 -26 -90 -8 -9 -15 -23 -15 -32 0 -9 -6 -40 -12 -69 -9 -36 -17
-52 -26 -48 -10 3 -10 0 -2 -15 8 -15 8 -20 -1 -18 -7 2 -22 -15 -33 -38 -12
-22 -45 -64 -74 -92 -28 -29 -52 -58 -52 -64 0 -14 -84 -98 -98 -98 -6 0 -13
-9 -17 -19 -3 -11 -15 -23 -26 -26 -10 -4 -19 -10 -19 -14 0 -4 -21 -30 -47
-57 -49 -51 -98 -78 -158 -90 -19 -3 -35 -10 -35 -15 0 -5 -12 -9 -26 -9 -14
0 -23 -3 -21 -7 3 -5 -38 -21 -91 -38 -54 -16 -99 -33 -102 -37 -3 -4 -27 -9
-52 -12 -26 -2 -55 -9 -65 -14 -38 -20 -551 4 -613 28 -14 6 -61 12 -105 14
-44 2 -120 11 -170 21 -49 9 -110 19 -135 23 l-45 6 35 7 c26 5 17 7 -35 7
-78 -1 -247 20 -255 31 -7 9 -119 31 -163 31 -19 0 -38 4 -41 9 -4 5 -25 12
-47 16 -23 4 -50 16 -60 26 -13 13 -27 17 -49 13 -19 -4 -38 -1 -52 8 -22 14
-50 21 -143 34 -22 4 -47 12 -55 19 -8 7 -33 15 -55 18 -58 7 -128 29 -143 44
-7 7 -27 13 -43 13 -16 0 -29 4 -29 9 0 5 -21 11 -47 15 -52 7 -101 23 -148
48 -16 8 -51 18 -76 22 -26 4 -55 13 -65 21 -11 8 -39 15 -64 15 -29 0 -54 7
-70 20 -14 11 -37 20 -52 20 -15 0 -30 5 -33 10 -3 6 -16 10 -28 10 -12 0 -33
9 -47 20 -14 11 -40 20 -57 20 -18 0 -33 4 -33 8 0 5 -22 14 -50 21 -46 12
-77 31 -50 31 6 0 8 5 5 10 -3 6 -18 10 -33 10 -38 0 -132 23 -132 32 0 5 -9
8 -20 8 -11 0 -20 4 -20 8 0 4 -40 23 -90 41 -49 19 -90 38 -90 43 0 4 -10 8
-23 8 -13 0 -33 9 -45 20 -12 11 -27 20 -35 20 -8 0 -22 9 -32 20 -10 11 -28
20 -41 20 -24 0 -86 32 -118 62 -11 10 -32 18 -47 18 -14 0 -32 6 -38 14 -6 7
-24 16 -39 19 -15 3 -43 20 -61 38 -20 18 -46 32 -63 34 -16 1 -44 14 -61 28
-23 20 -44 27 -74 27 -32 0 -43 4 -43 15 0 10 -10 15 -30 15 -18 0 -39 10 -54
25 -14 14 -32 25 -41 25 -8 0 -15 4 -15 9 0 5 -9 13 -20 16 -11 4 -32 17 -45
31 -18 18 -35 24 -70 24 -25 0 -45 5 -45 10 0 6 -6 10 -13 10 -8 0 -36 20 -62
46 -27 25 -64 52 -84 60 -19 8 -38 19 -41 23 -3 5 -27 11 -53 13 -37 4 -55 12
-72 32 -12 14 -29 26 -36 26 -8 0 -21 9 -29 20 -10 14 -26 20 -52 20 -31 0
-38 4 -38 20 0 11 -4 20 -10 20 -5 0 -10 6 -10 13 0 6 -9 23 -20 37 l-20 25 0
-27 c0 -21 -5 -28 -20 -28 -12 0 -20 -7 -20 -17 0 -15 -1 -15 -18 0 -10 10
-24 17 -30 17 -8 0 -12 22 -12 65 l0 65 -40 0 c-29 0 -40 4 -40 15 0 12 -16
15 -80 15 l-80 0 0 51 c0 43 -5 55 -29 80 -16 16 -34 29 -40 29 -6 0 -11 8
-11 18 0 12 -13 23 -36 31 -21 8 -73 50 -126 102 -49 49 -93 89 -98 89 -5 0
-11 9 -15 19 -3 11 -15 23 -26 26 -16 5 -19 16 -19 61 l0 54 -40 0 c-33 0 -40
4 -40 19 0 11 -9 21 -21 24 -17 5 -20 11 -15 29 3 13 9 74 13 136 l6 112 -25
0 c-25 0 -26 3 -33 80 -7 74 -9 80 -30 80 -21 0 -23 6 -35 120 l-13 120 -43 0
c-30 0 -44 4 -44 13 0 8 8 14 18 14 9 -1 31 1 47 2 26 2 28 3 10 11 -11 5 -33
9 -48 9 -25 1 -47 24 -35 37 3 2 47 -2 99 -11 101 -16 115 -17 108 -11 -2 3
-49 12 -104 21 -272 43 -755 152 -1045 235 -345 99 -437 128 -700 223 -274 99
-402 150 -650 259 -201 88 -747 353 -784 381 -19 14 -19 14 1 19 11 3 31 -1
44 -9 24 -14 24 -14 -6 -8 -25 4 -27 3 -12 -6 10 -6 31 -7 47 -4 30 6 43 -8
18 -18 -8 -4 -7 -6 4 -6 9 -1 18 -7 21 -13 2 -7 4 -1 4 15 0 21 -5 29 -26 34
-43 10 -81 33 -81 48 0 11 14 13 70 8 67 -6 70 -5 70 16 0 16 6 21 25 21 14 0
25 4 25 8 0 5 19 15 42 21 l43 13 -32 17 c-26 13 -29 18 -17 29 15 14 121 17
126 3 3 -10 42 -14 130 -12 47 1 58 4 63 20 3 11 15 23 26 26 10 4 19 13 19
21 0 11 17 14 80 14 47 0 80 4 80 10 0 6 18 10 40 10 47 0 53 19 15 44 -55 36
-20 61 94 70 50 4 91 12 91 17 0 5 36 9 80 9 72 0 80 2 80 19 0 11 9 21 21 24
17 5 20 11 16 29 -10 40 25 68 87 68 20 0 36 5 36 10 0 6 18 10 40 10 22 0 40
5 40 10 0 6 18 10 40 10 22 0 40 5 40 10 0 6 18 10 40 10 22 0 40 5 40 10 0 6
18 10 40 10 38 0 40 -2 40 -30 l0 -30 80 0 c47 0 80 4 80 10 0 6 18 10 40 10
22 0 40 5 40 10 0 6 20 10 44 10 47 0 62 11 68 50 4 30 40 50 91 50 20 0 37 5
37 10 0 6 70 10 190 10 l190 0 0 40 0 40 290 0 c283 0 290 0 290 -20 0 -17 7
-20 40 -20 33 0 40 3 40 20 0 17 7 20 40 20 22 0 40 5 40 10 0 6 18 10 40 10
22 0 40 5 40 10 0 6 18 10 40 10 22 0 40 5 40 10 0 6 33 10 80 10 47 0 80 4
80 10 0 6 60 10 160 10 88 0 160 4 160 8 0 12 189 32 301 32 88 0 97 2 102 20
3 12 14 20 26 20 18 0 21 6 21 40 l0 40 51 0 51 0 -37 -46z m-2275 -74 c0 -5
-5 -10 -11 -10 -5 0 -7 5 -4 10 3 6 8 10 11 10 2 0 4 -4 4 -10z m143 -47 c-13
-2 -33 -2 -45 0 -13 2 -3 4 22 4 25 0 35 -2 23 -4z m177 -43 l0 -30 -80 0
c-47 0 -80 -4 -80 -10 0 -6 -33 -10 -80 -10 l-80 0 0 -30 c0 -28 -2 -30 -40
-30 -38 0 -40 2 -40 30 0 28 2 30 40 30 22 0 40 5 40 10 0 6 18 10 40 10 22 0
40 5 40 10 0 6 18 10 40 10 28 0 40 4 40 14 0 15 27 20 123 24 35 2 37 0 37
-28z m-577 -107 c-13 -2 -33 -2 -45 0 -13 2 -3 4 22 4 25 0 35 -2 23 -4z
m2862 -112 c3 -5 18 -12 34 -16 16 -3 32 -13 35 -21 4 -11 -6 -14 -54 -14 -60
0 -60 0 -60 30 0 23 5 30 19 30 11 0 22 -4 26 -9z m215 -116 c0 -8 -4 -15 -10
-15 -5 0 -10 7 -10 15 0 8 5 15 10 15 6 0 10 -7 10 -15z m-5151 -391 c14 -12
-19 -1 -35 12 -18 14 -18 14 6 3 14 -6 27 -13 29 -15z m61 -34 c8 -5 11 -10 5
-10 -5 0 -17 5 -25 10 -8 5 -10 10 -5 10 6 0 17 -5 25 -10z m80 0 c-8 -5 -19
-10 -25 -10 -5 0 -3 5 5 10 8 5 20 10 25 10 6 0 3 -5 -5 -10z m6 -29 c-3 -5 1
-11 9 -15 8 -3 15 -10 15 -16 0 -7 -12 -4 -30 6 -21 13 -26 20 -17 26 16 10
29 10 23 -1z m5664 -71 c0 -5 -9 -10 -20 -10 -11 0 -20 5 -20 10 0 6 9 10 20
10 11 0 20 -4 20 -10z m-11287 -1044 c65 -27 72 -45 72 -176 0 -111 -1 -120
-24 -144 -36 -38 -81 -49 -185 -44 -145 6 -166 30 -166 188 0 119 11 147 65
171 49 23 190 26 238 5z m1998 -9 c39 -26 49 -59 49 -167 0 -158 -21 -182
-166 -188 -104 -5 -149 6 -185 44 -23 24 -24 33 -24 144 0 130 7 148 70 177
44 20 221 13 256 -10z m6616 -3 c-3 -3 -12 -4 -19 -1 -8 3 -5 6 6 6 11 1 17
-2 13 -5z m2 -28 c7 -8 8 -17 3 -20 -6 -3 -12 3 -15 14 -6 24 -4 25 12 6z m38
8 c-3 -3 -12 -4 -19 -1 -8 3 -5 6 6 6 11 1 17 -2 13 -5z m63 2 c0 -2 -9 -6
-20 -9 -11 -3 -18 -1 -14 4 5 9 34 13 34 5z m47 -318 c-2 -13 -4 -3 -4 22 0
25 2 35 4 23 2 -13 2 -33 0 -45z m6444 0 c9 -17 8 -19 -13 -16 -15 2 -24 11
-26 25 -3 18 0 21 13 17 8 -4 20 -15 26 -26z m-6361 -188 c0 -5 -2 -10 -4 -10
-3 0 -8 5 -11 10 -3 6 -1 10 4 10 6 0 11 -4 11 -10z m-9760 -20 c69 -5 146
-12 173 -16 l47 -6 0 -129 0 -128 -327 2 c-349 2 -423 -5 -512 -51 -86 -44
-106 -156 -98 -550 6 -348 19 -389 132 -431 91 -34 236 -44 538 -38 l277 6 0
-129 0 -128 -27 -6 c-116 -25 -539 -34 -708 -16 -317 35 -473 139 -539 358
-40 136 -47 675 -11 852 61 301 275 415 785 418 80 1 201 -3 270 -8z m2105 0
c77 -6 155 -13 173 -16 l32 -6 0 -128 0 -128 -232 -4 c-204 -3 -239 -6 -280
-23 -60 -26 -96 -57 -114 -101 -24 -58 -34 -259 -34 -746 l0 -468 -166 0 -165
0 4 593 c3 506 6 602 20 661 56 234 188 340 457 366 112 11 152 11 305 0z
m2225 0 c140 -12 213 -30 306 -75 118 -58 196 -157 236 -301 21 -74 22 -99 23
-424 0 -299 -2 -355 -18 -422 -26 -111 -68 -187 -137 -251 -92 -85 -190 -124
-370 -146 -93 -12 -450 -15 -450 -4 0 3 31 54 69 113 38 58 75 118 82 133 12
26 15 27 93 27 114 0 202 16 265 48 102 51 114 109 109 534 l-3 303 -30 60
c-36 71 -63 89 -166 111 -88 19 -375 21 -459 5 -144 -29 -183 -79 -201 -256
-13 -125 -6 -567 10 -629 9 -35 6 -46 -21 -100 -40 -79 -98 -163 -138 -201
l-32 -30 -45 50 c-57 62 -97 146 -117 246 -35 170 -29 697 8 838 35 128 122
238 235 295 143 73 436 102 751 76z m-3352 -812 l-3 -803 -177 -3 -178 -2 0
805 0 805 180 0 180 0 -2 -802z m1972 -3 l0 -805 -177 2 -178 3 -3 803 -2 802
180 0 180 0 0 -805z m3355 779 c275 -48 409 -158 462 -381 14 -57 17 -158 20
-635 l4 -568 -190 0 -191 0 0 468 c0 477 -9 663 -34 723 -15 36 -46 69 -85 89
-94 48 -592 55 -648 8 -10 -8 -13 -145 -15 -647 l-3 -636 -187 -3 -188 -2 0
743 0 744 87 27 c110 34 305 73 420 86 122 12 439 4 548 -16z m3452 -236 c-2
-13 -4 -3 -4 22 0 25 2 35 4 23 2 -13 2 -33 0 -45z m-5769 -2220 l3 -38 -55 0
c-70 0 -96 -27 -96 -101 l0 -49 75 0 75 0 0 -40 0 -40 -75 0 -75 0 0 -240 0
-240 -45 0 -45 0 0 240 0 240 -45 0 -45 0 0 40 0 40 44 0 43 0 7 58 c13 116
74 175 176 170 l55 -3 3 -37z m-4848 -378 l0 -370 -40 0 -40 0 0 370 0 370 40
0 40 0 0 -370z m2060 325 l0 -45 -45 0 -45 0 0 45 0 45 45 0 45 0 0 -45z
m3690 -60 l0 -75 70 0 70 0 0 -40 0 -40 -70 0 -70 0 0 -189 c0 -224 1 -226 87
-219 l53 5 0 -38 c0 -24 -5 -39 -16 -43 -30 -11 -106 -6 -140 10 -62 30 -69
55 -72 277 l-4 197 -44 0 -44 0 0 40 0 40 45 0 45 0 0 75 0 75 45 0 45 0 0
-75z m-5195 -98 c27 -15 47 -37 63 -67 21 -42 22 -56 22 -257 l0 -213 -40 0
-40 0 0 195 c0 228 -7 256 -67 282 -28 11 -57 14 -113 10 -121 -8 -110 16
-110 -253 l0 -234 -45 0 -45 0 2 257 3 257 49 18 c113 43 248 45 321 5z m553
3 c39 -18 42 -21 42 -59 l0 -40 -56 26 c-44 20 -67 24 -109 21 -72 -6 -105
-29 -105 -73 0 -45 28 -66 133 -99 46 -14 96 -35 111 -47 103 -81 58 -243 -77
-280 -56 -15 -152 -6 -210 19 -45 20 -47 23 -47 61 0 23 2 41 4 41 2 0 28 -11
58 -25 126 -59 267 -13 244 81 -7 27 -72 64 -146 84 -106 28 -154 79 -153 162
2 128 161 194 311 128z m560 4 c108 -45 169 -188 143 -337 -22 -126 -84 -196
-193 -219 -55 -11 -136 -4 -193 19 -13 4 -15 -15 -15 -127 l0 -131 -37 3 -38
3 -3 359 c-3 394 -3 389 58 421 69 35 205 40 278 9z m846 20 c10 -4 16 -18 16
-39 l0 -32 -82 -6 c-46 -4 -93 -9 -105 -13 l-23 -6 0 -234 0 -234 -45 0 c-41
0 -45 2 -41 23 3 12 5 128 5 258 l1 237 78 20 c106 29 168 37 196 26z m492
-19 c38 -15 70 -56 85 -104 6 -22 9 -104 7 -208 -3 -165 -4 -172 -27 -197 -36
-38 -85 -50 -201 -51 -87 0 -112 4 -144 21 -71 37 -102 106 -86 192 17 95 87
142 210 142 41 -1 93 -7 115 -15 22 -8 44 -15 49 -15 13 0 -1 99 -19 126 -8
13 -30 31 -47 40 -43 22 -159 14 -217 -15 l-41 -21 0 40 c0 38 3 42 38 57 79
33 208 37 278 8z m952 -7 c101 -48 151 -189 122 -343 -24 -127 -101 -202 -219
-212 -114 -11 -208 33 -251 117 -48 95 -47 266 3 355 58 103 220 143 345 83z
m3001 22 c11 -5 18 -21 19 -38 l1 -29 -87 -6 c-48 -4 -97 -9 -109 -13 l-23 -6
0 -234 0 -234 -40 0 -40 0 2 256 3 257 40 14 c39 14 162 40 198 42 10 1 26 -3
36 -9z m451 -17 c50 -20 85 -57 111 -117 34 -74 34 -229 1 -301 -48 -104 -107
-140 -232 -140 -69 0 -93 5 -127 23 -84 44 -124 128 -124 262 0 173 59 263
191 291 45 10 136 1 180 -18z m-5360 -263 l0 -280 -40 0 -40 0 0 280 0 280 40
0 40 0 0 -280z m3012 78 c4 -229 12 -258 73 -284 45 -18 128 -18 165 1 58 30
65 59 68 283 l3 202 40 0 40 0 -3 -217 c-3 -198 -5 -222 -24 -258 -45 -87
-174 -127 -296 -91 -65 19 -120 72 -137 133 -12 41 -15 415 -4 426 3 4 21 7
39 7 l32 0 4 -202z m1058 -15 l5 -213 32 -32 c29 -29 40 -33 100 -36 59 -3 73
0 103 20 52 35 59 67 59 286 l1 192 41 0 40 0 -3 -223 -3 -224 -28 -41 c-15
-24 -45 -51 -69 -63 -88 -45 -229 -33 -296 25 -59 52 -65 78 -70 299 -2 108
-1 204 2 213 4 11 17 14 43 12 l38 -3 5 -212z m-5897 -3724 c9 -5 17 -16 17
-25 0 -11 -6 -13 -27 -7 -16 5 -52 8 -80 8 -44 0 -57 -4 -80 -28 -26 -25 -28
-33 -28 -107 0 -73 2 -82 27 -106 22 -23 36 -27 80 -28 29 0 65 3 81 8 22 7
27 5 27 -8 0 -22 -40 -36 -106 -36 -70 0 -109 20 -134 70 -35 70 -23 200 23
239 46 38 147 48 200 20z m1055 -6 c44 -27 62 -72 62 -153 0 -119 -45 -173
-144 -173 -103 0 -148 45 -154 152 -7 111 26 173 100 191 42 10 106 3 136 -17z
m1496 7 c33 -12 36 -45 4 -36 -88 26 -159 13 -183 -34 -9 -17 -15 -56 -15 -94
0 -58 3 -69 29 -98 25 -28 36 -33 78 -33 26 0 63 4 81 8 26 7 32 6 32 -7 0
-23 -41 -36 -108 -36 -105 0 -152 52 -152 170 0 66 16 115 46 142 41 35 122
43 188 18z m1158 -6 c44 -23 63 -68 63 -154 0 -120 -43 -172 -145 -173 -107
-2 -155 51 -155 173 0 60 4 82 23 111 40 65 135 84 214 43z m728 -3 c40 -28
60 -78 60 -151 0 -117 -51 -173 -157 -173 -96 0 -145 57 -145 172 0 72 14 112
51 145 42 38 141 42 191 7z m413 7 c26 -14 22 -42 -5 -34 -134 38 -208 -6
-208 -124 0 -87 48 -140 127 -140 64 0 73 8 73 61 l0 49 -40 0 c-33 0 -40 3
-40 20 0 18 7 20 60 20 l60 0 0 -80 c0 -90 -4 -95 -86 -101 -78 -5 -103 1
-138 31 -75 66 -71 241 8 290 45 29 141 33 189 8z m838 1 c28 -15 25 -43 -3
-34 -57 19 -103 17 -122 -4 -33 -36 -15 -64 63 -98 81 -36 106 -67 97 -116
-10 -54 -46 -80 -108 -80 -68 1 -108 16 -108 42 0 19 2 19 35 5 49 -20 101
-18 125 6 41 41 22 72 -71 113 -82 36 -104 74 -77 133 23 49 108 66 169 33z
m552 -1 c9 -5 17 -16 17 -24 0 -11 -5 -14 -17 -9 -37 14 -118 16 -143 3 -54
-28 -76 -130 -45 -204 24 -57 109 -79 188 -48 12 4 17 1 17 -10 0 -22 -40 -36
-107 -36 -96 0 -141 45 -150 151 -12 132 60 208 182 192 22 -3 48 -9 58 -15z
m356 -1 c43 -21 63 -60 68 -134 9 -116 -36 -186 -122 -194 -70 -5 -95 1 -130
34 -69 64 -67 216 4 281 39 35 121 41 180 13z m-6429 -157 c0 -163 -1 -170
-20 -170 -19 0 -20 7 -20 170 0 163 1 170 20 170 19 0 20 -7 20 -170z m345
145 c20 -19 25 -35 25 -71 0 -40 -5 -51 -34 -79 l-34 -32 39 -61 c21 -34 39
-64 39 -67 0 -3 -8 -5 -19 -5 -11 0 -35 25 -65 70 -44 67 -48 70 -86 70 l-40
0 0 -70 c0 -63 -2 -70 -20 -70 -19 0 -20 7 -20 170 l0 170 95 0 c88 0 98 -2
120 -25z m185 -145 c0 -163 -1 -170 -20 -170 -19 0 -20 7 -20 170 0 163 1 170
20 170 19 0 20 -7 20 -170z m680 33 l95 -136 3 136 c2 129 4 137 22 137 19 0
20 -7 20 -170 0 -170 0 -170 -22 -170 -18 1 -44 31 -118 137 l-95 136 -3 -137
c-2 -128 -4 -136 -22 -136 -19 0 -20 7 -20 170 0 170 0 170 23 170 17 -1 43
-32 117 -137z m513 123 c8 -22 -2 -26 -60 -26 l-53 0 0 -150 c0 -143 -1 -150
-20 -150 -19 0 -20 7 -20 150 l0 150 -60 0 c-53 0 -60 2 -60 20 0 19 7 20 134
20 106 0 135 -3 139 -14z m315 -3 c-3 -15 -17 -18 -91 -21 l-87 -3 0 -54 0
-55 80 0 c73 0 80 -2 80 -20 0 -18 -7 -20 -80 -20 l-80 0 0 -55 0 -55 90 0
c83 0 90 -1 90 -20 0 -19 -7 -20 -110 -20 l-110 0 0 170 0 170 111 0 c100 0
110 -2 107 -17z m522 -58 l0 -75 90 0 90 0 0 75 c0 68 2 75 20 75 19 0 20 -7
20 -170 0 -163 -1 -170 -20 -170 -18 0 -20 7 -20 75 l0 75 -90 0 -90 0 0 -75
c0 -68 -2 -75 -20 -75 -19 0 -20 7 -20 170 0 163 1 170 20 170 18 0 20 -7 20
-75z m482 -60 c51 -74 96 -134 101 -135 4 0 7 61 7 135 0 128 1 135 20 135 19
0 20 -7 20 -170 l0 -170 -24 0 c-19 0 -43 27 -122 140 l-99 140 -3 -140 c-2
-132 -4 -140 -22 -140 -19 0 -20 7 -20 170 l0 170 24 0 c20 0 41 -25 118 -135z
m718 -15 l0 -150 90 0 c83 0 90 -1 90 -20 0 -19 -7 -20 -105 -20 l-105 0 0
170 c0 144 2 170 15 170 13 0 15 -23 15 -150z m1120 -20 c0 -163 -1 -170 -20
-170 -19 0 -20 7 -20 170 0 163 1 170 20 170 19 0 20 -7 20 -170z m338 153
c-3 -15 -17 -18 -91 -21 l-87 -3 0 -54 0 -55 80 0 c73 0 80 -2 80 -20 0 -18
-7 -20 -80 -20 l-80 0 0 -55 0 -55 90 0 c83 0 90 -1 90 -20 0 -19 -7 -20 -110
-20 l-110 0 0 170 0 170 111 0 c100 0 110 -2 107 -17z m1499 -68 c31 -47 60
-82 63 -78 4 4 31 43 59 86 35 52 58 77 71 77 19 0 20 -8 20 -170 0 -144 -2
-170 -15 -170 -12 0 -15 21 -16 123 -1 67 -1 128 0 135 3 23 -7 12 -60 -60
-28 -40 -55 -77 -59 -82 -5 -4 -33 29 -64 75 l-56 84 0 -138 c0 -130 -1 -137
-20 -137 -19 0 -20 7 -20 170 0 163 1 170 20 170 14 0 37 -26 77 -85z m-997
-230 c0 -20 -5 -25 -25 -25 -20 0 -25 5 -25 25 0 20 5 25 25 25 20 0 25 -5 25
-25z"/>
<path d="M19080 9340 c0 -5 16 -10 35 -10 19 0 35 5 35 10 0 6 -16 10 -35 10
-19 0 -35 -4 -35 -10z"/>
<path d="M19190 9240 c-9 -6 -10 -10 -3 -10 6 0 15 5 18 10 8 12 4 12 -15 0z"/>
<path d="M22328 8183 c7 -3 16 -2 19 1 4 3 -2 6 -13 5 -11 0 -14 -3 -6 -6z"/>
<path d="M22428 8163 c7 -3 16 -2 19 1 4 3 -2 6 -13 5 -11 0 -14 -3 -6 -6z"/>
<path d="M22328 8153 c7 -3 16 -2 19 1 4 3 -2 6 -13 5 -11 0 -14 -3 -6 -6z"/>
<path d="M22538 8153 c7 -3 16 -2 19 1 4 3 -2 6 -13 5 -11 0 -14 -3 -6 -6z"/>
<path d="M22230 8140 c-11 -7 -4 -9 22 -7 21 2 41 6 44 10 11 11 -49 8 -66 -3z"/>
<path d="M22480 7420 c0 -5 7 -10 16 -10 8 0 12 5 9 10 -3 6 -10 10 -16 10 -5
0 -9 -4 -9 -10z"/>
<path d="M13004 4940 c-53 -17 -55 -23 -52 -211 l3 -174 30 -14 c17 -8 58 -17
91 -19 82 -6 126 15 162 77 24 41 27 56 27 136 0 100 -19 152 -69 189 -30 23
-139 32 -192 16z"/>
<path d="M14340 4720 c-66 -16 -101 -92 -70 -151 23 -41 102 -63 194 -53 81 9
96 26 96 110 0 65 0 65 -35 80 -44 18 -139 26 -185 14z"/>
<path d="M15294 4936 c-68 -30 -98 -102 -92 -222 7 -142 52 -194 167 -194 105
0 151 42 169 156 12 71 1 161 -24 204 -36 60 -146 88 -220 56z"/>
<path d="M18754 4936 c-68 -30 -99 -106 -92 -226 8 -135 58 -190 175 -190 115
0 167 67 167 215 0 109 -26 168 -86 195 -50 23 -120 25 -164 6z"/>
<path d="M12671 1047 c-36 -21 -50 -56 -51 -124 0 -74 14 -109 51 -129 53 -27
136 -9 154 33 29 69 21 175 -16 208 -25 23 -106 30 -138 12z"/>
<path d="M15330 1048 c-60 -32 -80 -163 -33 -226 40 -54 136 -54 177 1 17 23
21 43 21 103 0 66 -3 76 -26 100 -32 31 -100 42 -139 22z"/>
<path d="M16055 1050 c-31 -12 -43 -31 -54 -83 -16 -71 2 -143 42 -168 56 -34
137 -18 162 32 18 34 20 138 3 174 -21 46 -96 69 -153 45z"/>
<path d="M18223 1050 c-39 -16 -57 -57 -57 -129 0 -36 6 -76 12 -88 15 -27 62
-53 95 -53 84 0 122 52 115 158 -4 58 -8 68 -36 93 -34 30 -83 37 -129 19z"/>
<path d="M12100 985 l0 -65 53 0 c74 0 101 16 105 63 5 57 -9 67 -89 67 l-69
0 0 -65z"/>
</g>
</svg>
